<?xml version="1.0" standalone="no"?><!DOCTYPE svg PUBLIC "-//W3C//DTD SVG 1.1//EN" "http://www.w3.org/Graphics/SVG/1.1/DTD/svg11.dtd"><svg t="1586877218793" class="icon" viewBox="0 0 1024 1024" version="1.1" xmlns="http://www.w3.org/2000/svg" p-id="1181" xmlns:xlink="http://www.w3.org/1999/xlink" width="200" height="200"><defs><style type="text/css"></style></defs><path d="M912 542.8v200c0 4.2-1.5 7.7-4.6 10.8-3.1 3.1-6.7 4.6-10.8 4.6H789v77c0 12.8-4.5 23.7-13.4 32.7-9 9-20 13.4-32.7 13.4H281.3c-12.8 0-23.7-4.5-32.7-13.4-9-9-13.4-20-13.4-32.7v-77H127.4c-4.2 0-7.7-1.5-10.8-4.6-3.1-3.1-4.6-6.7-4.6-10.8v-200c0-25.3 9.1-47 27.2-65.1 18.1-18.2 39.8-27.2 65.1-27.2H235V189c0-12.8 4.5-23.7 13.4-32.7 9-9 20-13.4 32.7-13.4h323c12.8 0 26.9 3.3 42.3 9.6 15.4 6.4 27.6 14.2 36.5 23l73.1 73.1c9 9 16.7 21.2 23 36.5 6.4 15.4 9.6 29.5 9.6 42.3v123h30.7c25.3 0 47 9.1 65.1 27.2 18.5 18.2 27.6 39.8 27.6 65.2z m-615.3-30.9h430.7V327.5h-77c-12.8 0-23.7-4.5-32.7-13.4-9-9-13.4-20-13.4-32.7v-77H296.7v307.5z m0 307.6h430.7v-123H296.7v123z m544.6-255.1c6.1-6.1 9.1-13.2 9.1-21.6 0-8.2-3.1-15.6-9.1-21.6-6.1-6.1-13.3-9.1-21.6-9.1-8.2 0-15.6 3.1-21.6 9.1-6.1 6.1-9.1 13.3-9.1 21.6 0 8.2 3.1 15.6 9.1 21.6 6.1 6.1 13.2 9.1 21.6 9.1 8.2 0 15.5-3 21.6-9.1z" p-id="1182"></path></svg>